<svg width="25" height="27" viewBox="0 0 25 27" fill="none" xmlns="http://www.w3.org/2000/svg">
<path d="M15.5703 0.242188C16.8854 0.242188 18.0768 0.4375 19.1445 0.828125C20.2122 1.21875 21.1172 1.7526 21.8594 2.42969C22.6146 3.10677 23.194 3.90104 23.5977 4.8125C24.0013 5.71094 24.2031 6.66797 24.2031 7.68359V19.5586C24.2031 20.5742 24.0013 21.5378 23.5977 22.4492C23.194 23.3477 22.6146 24.1354 21.8594 24.8125C21.1172 25.4896 20.2122 26.0234 19.1445 26.4141C18.0768 26.8047 16.8854 27 15.5703 27H9.55469C8.23958 27 7.04818 26.8047 5.98047 26.4141C4.91276 26.0234 4.0013 25.4896 3.24609 24.8125C2.50391 24.1354 1.93099 23.3477 1.52734 22.4492C1.1237 21.5378 0.921875 20.5742 0.921875 19.5586V7.68359C0.921875 6.66797 1.1237 5.71094 1.52734 4.8125C1.93099 3.90104 2.50391 3.10677 3.24609 2.42969C4.0013 1.7526 4.91276 1.21875 5.98047 0.828125C7.04818 0.4375 8.23958 0.242188 9.55469 0.242188H15.5703ZM19.2422 12.0391L18.9688 10.3594L17.7188 9.12891L15.6875 8.91406H11.3125L10.1211 8.67969C10.056 8.45833 10.0104 8.26302 9.98438 8.09375C9.95833 7.91146 9.91276 7.72266 9.84766 7.52734V5.47656L10.1211 4.32422L11.4102 4.07031H16.3711L18.207 4.44141L18.6758 2.3125L16.4102 2H11.2734L9.32031 2.27344L8.05078 3.52344L7.79688 5.16406V7.83984L8.05078 9.48047L9.32031 10.7109L11.2734 10.9648H15.6875L16.8789 11.1602C16.918 11.3555 16.9635 11.5378 17.0156 11.707C17.0677 11.8763 17.1133 12.0521 17.1523 12.2344V14.793C17.1263 14.9622 17.0807 15.1445 17.0156 15.3398C16.9635 15.5352 16.918 15.7174 16.8789 15.8867L15.6094 16.082H10.7656L8.85156 15.7695L8.36328 17.8789L10.6484 18.1523H15.7266L17.7188 17.918L18.9688 16.6875L19.2422 15.0078V12.0391Z" fill="#FF0000"/>
</svg>
